<svg width="144" height="144" viewBox="0 0 144 144" fill="none" xmlns="http://www.w3.org/2000/svg">
<g id="&#240;&#159;&#166;&#134; icon &#34;clipboard list&#34;">
<path id="Vector" d="M53.9999 30H41.9999C38.8173 30 35.7651 31.2643 33.5147 33.5147C31.2642 35.7652 29.9999 38.8174 29.9999 42V114C29.9999 117.183 31.2642 120.235 33.5147 122.485C35.7651 124.736 38.8173 126 41.9999 126H102C105.183 126 108.235 124.736 110.485 122.485C112.736 120.235 114 117.183 114 114V42C114 38.8174 112.736 35.7652 110.485 33.5147C108.235 31.2643 105.183 30 102 30H89.9999" stroke="#3C92C1" stroke-width="9.28478" stroke-linecap="round" stroke-linejoin="round"/>
<path id="Vector_2" d="M78 18H66C59.3726 18 54 23.3726 54 30C54 36.6274 59.3726 42 66 42H78C84.6274 42 90 36.6274 90 30C90 23.3726 84.6274 18 78 18Z" stroke="#3C92C1" stroke-width="9.28478" stroke-linecap="round" stroke-linejoin="round"/>
<path id="Vector_3" d="M54 72H54.06" stroke="#3C92C1" stroke-width="9.28478" stroke-linecap="round" stroke-linejoin="round"/>
<path id="Vector_4" d="M78.0001 72H90.0001" stroke="#3C92C1" stroke-width="9.28478" stroke-linecap="round" stroke-linejoin="round"/>
<path id="Vector_5" d="M54 96H54.06" stroke="#3C92C1" stroke-width="9.28478" stroke-linecap="round" stroke-linejoin="round"/>
<path id="Vector_6" d="M78.0001 96H90.0001" stroke="#3C92C1" stroke-width="9.28478" stroke-linecap="round" stroke-linejoin="round"/>
</g>
</svg>
